<svg width="100vw" height="100vh" viewBox="0 0 1920 1080" fill="none" xmlns="http://www.w3.org/2000/svg">
<path d="M963.495 675.999C962.198 675.999 961.009 675.783 959.82 675.242C958.739 674.702 957.659 674.053 956.794 673.189C955.929 672.324 955.281 671.351 954.74 670.162C954.2 669.082 953.984 667.785 953.984 666.488C953.984 665.191 954.2 664.002 954.74 662.813C955.281 661.732 955.929 660.651 956.794 659.787C957.659 658.922 958.631 658.274 959.82 657.733C960.901 657.193 962.198 656.977 963.495 656.977C964.792 656.977 965.981 657.193 967.17 657.733C968.25 658.274 969.331 658.922 970.088 659.787C970.952 660.651 971.601 661.624 972.141 662.813C972.682 663.894 972.898 665.191 972.898 666.488C972.898 666.812 972.79 667.028 972.574 667.352C972.358 667.568 972.141 667.677 971.817 667.677C971.493 667.677 971.277 667.568 970.952 667.352C970.736 667.136 970.628 666.812 970.628 666.488C970.628 665.515 970.412 664.65 970.088 663.786C969.764 662.921 969.223 662.164 968.575 661.516C967.926 660.867 967.17 660.327 966.305 660.003C965.44 659.679 964.576 659.462 963.603 659.462C962.63 659.462 961.658 659.679 960.901 660.003C960.036 660.327 959.28 660.867 958.631 661.516C957.983 662.164 957.442 662.921 957.118 663.786C956.794 664.65 956.578 665.515 956.578 666.488C956.578 667.46 956.794 668.433 957.118 669.19C957.442 670.054 957.983 670.811 958.631 671.459C959.28 672.108 960.036 672.648 960.901 672.973C961.766 673.297 962.63 673.513 963.603 673.513C965.116 673.513 966.521 673.081 967.818 672.108C968.034 671.892 968.359 671.892 968.683 671.892C969.007 671.892 969.223 672.108 969.439 672.324C969.656 672.54 969.656 672.864 969.656 673.189C969.656 673.513 969.439 673.729 969.223 673.945C967.386 675.35 965.549 675.999 963.495 675.999ZM971.709 675.999C971.385 675.999 971.169 675.891 970.844 675.675C970.628 675.458 970.52 675.134 970.52 674.81V658.382C970.52 658.057 970.628 657.841 970.844 657.517C971.061 657.301 971.385 657.193 971.709 657.193C972.033 657.193 972.249 657.301 972.466 657.517C972.682 657.733 972.79 658.057 972.79 658.382V674.918C972.79 675.242 972.682 675.458 972.466 675.783C972.249 675.891 972.033 675.999 971.709 675.999Z" fill="#1C1C1C"/>
<path d="M986.3 675.999C985.003 675.999 983.814 675.783 982.625 675.242C981.544 674.702 980.464 674.053 979.707 673.189C978.842 672.324 978.194 671.351 977.653 670.162C977.113 669.082 976.897 667.785 976.897 666.488C976.897 665.191 977.113 664.002 977.653 662.813C978.194 661.732 978.842 660.651 979.707 659.787C980.572 658.922 981.544 658.274 982.625 657.733C983.706 657.193 985.003 656.977 986.3 656.977C987.597 656.977 988.786 657.193 989.975 657.733C991.055 658.274 992.136 658.922 993.001 659.787C993.865 660.651 994.514 661.624 995.054 662.813C995.595 663.894 995.811 665.191 995.811 666.488C995.811 667.785 995.595 668.973 995.054 670.162C994.514 671.243 993.865 672.324 993.001 673.189C992.136 674.053 991.164 674.702 989.975 675.242C988.786 675.783 987.597 675.999 986.3 675.999ZM986.3 659.679C985.327 659.679 984.463 659.895 983.598 660.219C982.733 660.543 981.977 661.084 981.328 661.732C980.68 662.381 980.139 663.137 979.815 664.002C979.491 664.867 979.275 665.731 979.275 666.704C979.275 667.677 979.491 668.649 979.815 669.406C980.139 670.271 980.68 671.027 981.328 671.676C981.977 672.324 982.733 672.864 983.598 673.189C984.463 673.513 985.327 673.729 986.3 673.729C987.273 673.729 988.245 673.513 989.002 673.189C989.867 672.864 990.623 672.324 991.272 671.676C991.92 671.027 992.46 670.271 992.785 669.406C993.109 668.541 993.325 667.677 993.325 666.704C993.325 665.731 993.109 664.867 992.785 664.002C992.46 663.137 991.92 662.381 991.272 661.732C990.623 661.084 989.867 660.543 989.002 660.219C988.245 659.787 987.273 659.679 986.3 659.679ZM994.514 675.999C994.19 675.999 993.974 675.891 993.649 675.675C993.433 675.458 993.325 675.134 993.325 674.81V650.6C993.325 650.276 993.433 650.06 993.649 649.735C993.865 649.519 994.19 649.411 994.514 649.411C994.838 649.411 995.054 649.519 995.271 649.735C995.487 649.951 995.595 650.276 995.595 650.6V674.918C995.595 675.242 995.487 675.458 995.271 675.783C995.162 675.891 994.838 675.999 994.514 675.999Z" fill="#1C1C1C"/>
<path d="M1004.24 675.999C1003.92 675.999 1003.7 675.891 1003.38 675.675C1003.05 675.458 1003.05 675.134 1003.05 674.81V656.869C1003.05 655.896 1003.27 654.923 1003.7 653.95C1004.13 652.978 1004.67 652.221 1005.32 651.573C1005.97 650.924 1006.84 650.384 1007.7 649.951C1008.56 649.519 1009.54 649.303 1010.62 649.303C1010.94 649.303 1011.16 649.411 1011.48 649.627C1011.7 649.843 1011.81 650.168 1011.81 650.492C1011.81 650.816 1011.7 651.032 1011.48 651.248C1011.27 651.465 1010.94 651.573 1010.62 651.573C1009.86 651.573 1009.21 651.681 1008.56 652.005C1007.92 652.329 1007.38 652.653 1006.94 653.086C1006.51 653.518 1006.08 654.167 1005.86 654.707C1005.54 655.355 1005.43 656.004 1005.43 656.76V674.918C1005.43 675.242 1005.32 675.458 1005.11 675.783C1004.89 676.107 1004.57 675.999 1004.24 675.999ZM1009.86 660.976H1004.89C1004.57 660.976 1004.35 660.867 1004.03 660.651C1003.81 660.435 1003.7 660.219 1003.7 659.895C1003.7 659.571 1003.81 659.354 1004.03 659.03C1004.24 658.814 1004.57 658.706 1004.89 658.706H1009.86C1010.19 658.706 1010.4 658.814 1010.62 659.03C1010.83 659.246 1010.94 659.571 1010.94 659.895C1010.94 660.219 1010.83 660.435 1010.62 660.651C1010.51 660.867 1010.19 660.976 1009.86 660.976Z" fill="#1C1C1C"/>
<path d="M1016.35 654.383C1016.02 654.383 1015.81 654.275 1015.48 654.058C1015.16 653.842 1015.16 653.518 1015.16 653.194V651.897C1015.16 651.573 1015.27 651.356 1015.48 651.032C1015.7 650.816 1016.02 650.708 1016.35 650.708C1016.67 650.708 1016.89 650.816 1017.1 651.032C1017.32 651.248 1017.43 651.573 1017.43 651.897V653.194C1017.43 653.518 1017.32 653.734 1017.1 654.058C1016.99 654.275 1016.67 654.383 1016.35 654.383ZM1016.35 675.999C1016.02 675.999 1015.81 675.891 1015.48 675.675C1015.16 675.458 1015.16 675.134 1015.16 674.81V658.382C1015.16 658.057 1015.27 657.841 1015.48 657.517C1015.7 657.193 1016.02 657.193 1016.35 657.193C1016.67 657.193 1016.89 657.301 1017.1 657.517C1017.32 657.733 1017.43 658.057 1017.43 658.382V674.918C1017.43 675.242 1017.32 675.458 1017.1 675.783C1016.99 675.891 1016.67 675.999 1016.35 675.999Z" fill="#1C1C1C"/>
<path d="M1028.13 675.999C1027.59 675.999 1027.05 675.891 1026.51 675.675C1025.97 675.458 1025.53 675.134 1025.21 674.81C1024.88 674.486 1024.56 673.945 1024.34 673.513C1024.13 672.973 1024.02 672.432 1024.02 671.892V650.6C1024.02 650.276 1024.13 650.06 1024.34 649.735C1024.56 649.519 1024.88 649.411 1025.21 649.411C1025.53 649.411 1025.75 649.519 1025.97 649.735C1026.18 649.951 1026.29 650.276 1026.29 650.6V671.892C1026.29 672.432 1026.51 672.864 1026.83 673.189C1027.15 673.513 1027.59 673.729 1028.13 673.729C1028.45 673.729 1028.67 673.837 1028.99 674.053C1029.21 674.269 1029.32 674.486 1029.32 674.81C1029.32 675.134 1029.21 675.35 1028.99 675.675C1028.78 675.891 1028.45 675.999 1028.13 675.999Z" fill="#1C1C1C"/>
<path d="M1047.58 675.999C1047.26 675.999 1047.04 675.891 1046.72 675.675C1046.5 675.458 1046.39 675.134 1046.39 674.81V663.353C1046.39 662.813 1046.28 662.381 1046.07 661.84C1045.85 661.408 1045.64 660.976 1045.31 660.651C1044.99 660.327 1044.56 660.003 1044.12 659.787C1043.69 659.571 1043.15 659.462 1042.61 659.462C1041.64 659.462 1040.77 659.679 1040.02 660.003C1039.26 660.327 1038.5 660.867 1037.96 661.516C1037.42 662.164 1036.88 662.921 1036.67 663.786C1036.34 664.65 1036.23 665.623 1036.23 666.596C1036.23 666.92 1036.12 667.136 1035.91 667.46C1035.69 667.677 1035.48 667.785 1035.15 667.785C1034.83 667.785 1034.61 667.677 1034.29 667.46C1034.07 667.244 1033.96 666.92 1033.96 666.596C1033.96 665.299 1034.18 664.11 1034.61 663.029C1035.04 661.948 1035.58 660.868 1036.34 660.003C1037.1 659.138 1038.07 658.382 1039.15 657.949C1040.23 657.409 1041.42 657.193 1042.72 657.193C1043.58 657.193 1044.34 657.301 1045.1 657.625C1045.85 657.949 1046.5 658.382 1047.04 658.922C1047.58 659.462 1048.01 660.111 1048.34 660.868C1048.66 661.624 1048.77 662.381 1048.77 663.245V674.918C1048.77 675.242 1048.66 675.458 1048.45 675.783C1048.23 676.107 1047.91 675.999 1047.58 675.999ZM1035.15 675.999C1034.83 675.999 1034.61 675.891 1034.29 675.675C1034.07 675.458 1033.96 675.134 1033.96 674.81V658.382C1033.96 658.057 1034.07 657.841 1034.29 657.517C1034.5 657.301 1034.83 657.193 1035.15 657.193C1035.48 657.193 1035.69 657.301 1035.91 657.517C1036.12 657.733 1036.23 658.057 1036.23 658.382V674.918C1036.23 675.242 1036.12 675.458 1035.91 675.783C1035.69 676.107 1035.48 675.999 1035.15 675.999ZM1058.93 675.999C1058.61 675.999 1058.39 675.891 1058.07 675.675C1057.74 675.458 1057.74 675.134 1057.74 674.81V663.353C1057.74 662.813 1057.63 662.381 1057.42 661.84C1057.2 661.408 1056.98 660.976 1056.55 660.651C1056.23 660.327 1055.8 660.003 1055.36 659.787C1054.93 659.571 1054.39 659.462 1053.85 659.462C1052.66 659.462 1051.69 659.679 1050.82 660.219C1049.96 660.759 1049.2 661.408 1048.55 662.381C1048.34 662.705 1048.12 662.813 1047.8 662.921C1047.47 663.029 1047.26 662.921 1046.93 662.813C1046.61 662.597 1046.5 662.381 1046.39 662.056C1046.28 661.732 1046.39 661.408 1046.5 661.192C1047.26 659.895 1048.34 658.922 1049.53 658.166C1050.82 657.409 1052.23 657.085 1053.74 657.085C1054.61 657.085 1055.36 657.193 1056.12 657.517C1056.88 657.841 1057.52 658.274 1058.07 658.814C1058.61 659.354 1059.04 660.003 1059.36 660.759C1059.69 661.516 1059.79 662.273 1059.79 663.137V674.918C1059.79 675.242 1059.69 675.458 1059.47 675.783C1059.25 676.107 1059.25 675.999 1058.93 675.999Z" fill="#1C1C1C"/>
<path d="M1079.79 675.999C1079.47 675.999 1079.25 675.891 1078.92 675.675C1078.71 675.458 1078.6 675.134 1078.6 674.81V663.353C1078.6 662.813 1078.49 662.381 1078.28 661.84C1078.06 661.408 1077.84 660.976 1077.52 660.651C1077.2 660.327 1076.76 660.003 1076.33 659.787C1075.9 659.571 1075.36 659.462 1074.82 659.462C1073.84 659.462 1072.98 659.679 1072.22 660.003C1071.47 660.327 1070.71 660.867 1070.17 661.516C1069.63 662.164 1069.09 662.921 1068.87 663.786C1068.55 664.65 1068.44 665.623 1068.44 666.596C1068.44 666.92 1068.33 667.136 1068.12 667.46C1067.9 667.677 1067.68 667.785 1067.36 667.785C1067.04 667.785 1066.82 667.677 1066.5 667.46C1066.28 667.244 1066.17 666.92 1066.17 666.596C1066.17 665.299 1066.39 664.11 1066.82 663.029C1067.25 661.948 1067.79 660.868 1068.55 660.003C1069.31 659.138 1070.28 658.382 1071.36 657.949C1072.44 657.409 1073.63 657.193 1074.93 657.193C1075.79 657.193 1076.55 657.301 1077.3 657.625C1078.06 657.949 1078.71 658.382 1079.25 658.922C1079.79 659.462 1080.22 660.111 1080.55 660.868C1080.87 661.624 1080.98 662.381 1080.98 663.245V674.918C1080.98 675.242 1080.87 675.458 1080.65 675.783C1080.44 676.107 1080.11 675.999 1079.79 675.999ZM1067.36 675.999C1067.04 675.999 1066.82 675.891 1066.5 675.675C1066.28 675.458 1066.17 675.134 1066.17 674.81V658.382C1066.17 658.057 1066.28 657.841 1066.5 657.517C1066.71 657.301 1067.04 657.193 1067.36 657.193C1067.68 657.193 1067.9 657.301 1068.12 657.517C1068.33 657.733 1068.44 658.057 1068.44 658.382V674.918C1068.44 675.242 1068.33 675.458 1068.12 675.783C1067.9 676.107 1067.68 675.999 1067.36 675.999ZM1091.14 675.999C1090.81 675.999 1090.6 675.891 1090.27 675.675C1089.95 675.458 1089.95 675.134 1089.95 674.81V663.353C1089.95 662.813 1089.84 662.381 1089.62 661.84C1089.41 661.408 1089.19 660.976 1088.76 660.651C1088.44 660.327 1088 660.003 1087.57 659.787C1087.14 659.571 1086.6 659.462 1086.06 659.462C1084.87 659.462 1083.9 659.679 1083.03 660.219C1082.17 660.759 1081.41 661.408 1080.76 662.381C1080.55 662.705 1080.33 662.813 1080.01 662.921C1079.68 663.029 1079.46 662.921 1079.14 662.813C1078.82 662.597 1078.71 662.381 1078.6 662.056C1078.49 661.732 1078.6 661.408 1078.71 661.192C1079.47 659.895 1080.55 658.922 1081.73 658.166C1083.03 657.409 1084.44 657.085 1085.95 657.085C1086.81 657.085 1087.57 657.193 1088.33 657.517C1089.08 657.841 1089.73 658.274 1090.27 658.814C1090.81 659.354 1091.25 660.003 1091.57 660.759C1091.89 661.516 1092 662.273 1092 663.137V674.918C1092 675.242 1091.89 675.458 1091.68 675.783C1091.46 676.107 1091.46 675.999 1091.14 675.999Z" fill="#1C1C1C"/>
<path d="M1106.81 675.999C1105.51 675.999 1104.32 675.783 1103.13 675.242C1102.05 674.702 1100.97 674.053 1100.11 673.189C1099.24 672.324 1098.6 671.351 1098.05 670.162C1097.51 669.082 1097.3 667.785 1097.3 666.488C1097.3 665.191 1097.51 664.002 1098.05 662.813C1098.6 661.732 1099.24 660.651 1100.11 659.787C1100.97 658.922 1101.95 658.274 1103.13 657.733C1104.22 657.193 1105.51 656.977 1106.81 656.977C1108.11 656.977 1109.3 657.193 1110.48 657.733C1111.56 658.274 1112.65 658.922 1113.4 659.787C1114.27 660.651 1114.92 661.624 1115.46 662.813C1116 663.894 1116.21 665.191 1116.21 666.488C1116.21 666.812 1116.1 667.028 1115.89 667.352C1115.67 667.568 1115.46 667.677 1115.13 667.677C1114.81 667.677 1114.59 667.568 1114.27 667.352C1114.05 667.136 1113.94 666.812 1113.94 666.488C1113.94 665.515 1113.73 664.65 1113.4 663.786C1113.08 662.921 1112.54 662.164 1111.89 661.516C1111.24 660.867 1110.48 660.327 1109.62 660.003C1108.75 659.679 1107.89 659.462 1106.92 659.462C1105.94 659.462 1104.97 659.679 1104.22 660.003C1103.35 660.327 1102.59 660.867 1101.95 661.516C1101.3 662.164 1100.76 662.921 1100.43 663.786C1100.11 664.65 1099.89 665.515 1099.89 666.488C1099.89 667.46 1100.11 668.433 1100.43 669.19C1100.76 670.054 1101.3 670.811 1101.95 671.459C1102.59 672.108 1103.35 672.648 1104.22 672.973C1105.08 673.297 1105.94 673.513 1106.92 673.513C1108.43 673.513 1109.84 673.081 1111.13 672.108C1111.35 671.892 1111.67 671.892 1112 671.892C1112.32 671.892 1112.54 672.108 1112.75 672.324C1112.97 672.54 1112.97 672.864 1112.97 673.189C1112.97 673.513 1112.75 673.729 1112.54 673.945C1110.81 675.35 1108.97 675.999 1106.81 675.999ZM1115.02 675.999C1114.7 675.999 1114.48 675.891 1114.16 675.675C1113.94 675.458 1113.83 675.134 1113.83 674.81V658.382C1113.83 658.057 1113.94 657.841 1114.16 657.517C1114.37 657.301 1114.7 657.193 1115.02 657.193C1115.35 657.193 1115.56 657.301 1115.78 657.517C1116 657.733 1116.1 658.057 1116.1 658.382V674.918C1116.1 675.242 1116 675.458 1115.78 675.783C1115.67 675.891 1115.35 675.999 1115.02 675.999Z" fill="#1C1C1C"/>
<path d="M1122.59 675.999C1122.26 675.999 1122.05 675.891 1121.72 675.675C1121.51 675.458 1121.4 675.134 1121.4 674.81V650.6C1121.4 650.276 1121.51 650.06 1121.72 649.735C1121.94 649.519 1122.26 649.411 1122.59 649.411C1122.91 649.411 1123.13 649.519 1123.35 649.735C1123.56 649.951 1123.67 650.276 1123.67 650.6V674.918C1123.67 675.242 1123.56 675.458 1123.35 675.783C1123.13 676.107 1122.91 675.999 1122.59 675.999ZM1123.13 669.082C1122.81 669.082 1122.48 668.974 1122.26 668.649C1122.05 668.433 1121.94 668.109 1121.94 667.785C1121.94 667.46 1122.05 667.244 1122.37 667.028L1133.07 657.625C1133.29 657.409 1133.61 657.301 1133.94 657.301C1134.26 657.301 1134.48 657.409 1134.69 657.733C1134.91 657.949 1135.02 658.274 1135.02 658.598C1135.02 658.922 1134.91 659.138 1134.59 659.354L1123.89 668.757C1123.67 668.974 1123.45 669.082 1123.13 669.082ZM1134.15 675.999C1133.83 675.999 1133.51 675.891 1133.29 675.566L1125.62 666.163C1125.4 665.947 1125.4 665.623 1125.4 665.299C1125.4 664.975 1125.51 664.758 1125.83 664.542C1126.05 664.326 1126.37 664.326 1126.7 664.326C1127.02 664.326 1127.24 664.434 1127.45 664.758L1135.13 674.161C1135.34 674.378 1135.45 674.702 1135.45 675.026C1135.45 675.35 1135.34 675.566 1135.02 675.783C1134.59 675.891 1134.37 675.999 1134.15 675.999Z" fill="#1C1C1C"/>
<path d="M1147.12 675.999C1145.83 675.999 1144.64 675.783 1143.45 675.242C1142.26 674.702 1141.29 674.053 1140.42 673.189C1139.56 672.324 1138.91 671.351 1138.37 670.162C1137.83 669.082 1137.61 667.785 1137.61 666.488C1137.61 665.191 1137.83 664.002 1138.37 662.813C1138.91 661.732 1139.56 660.651 1140.42 659.787C1141.29 658.922 1142.26 658.274 1143.45 657.733C1144.53 657.193 1145.83 656.977 1147.12 656.977C1148.42 656.977 1149.5 657.193 1150.58 657.733C1151.66 658.274 1152.64 658.922 1153.39 659.787C1154.15 660.651 1154.8 661.624 1155.12 662.813C1155.55 663.894 1155.77 665.083 1155.77 666.38C1155.77 666.704 1155.66 666.92 1155.45 667.244C1155.23 667.46 1155.01 667.568 1154.69 667.568H1141.61C1141.29 667.568 1141.07 667.46 1140.75 667.244C1140.53 667.028 1140.42 666.704 1140.42 666.38C1140.42 666.055 1140.53 665.839 1140.75 665.515C1140.96 665.299 1141.29 665.191 1141.61 665.191H1153.39C1153.28 664.326 1153.07 663.57 1152.64 662.813C1152.31 662.056 1151.77 661.516 1151.23 660.976C1150.69 660.435 1150.04 660.003 1149.28 659.787C1148.53 659.571 1147.77 659.354 1146.91 659.354C1145.93 659.354 1144.96 659.571 1144.21 659.895C1143.34 660.219 1142.58 660.759 1141.94 661.408C1141.29 662.056 1140.75 662.813 1140.42 663.678C1140.1 664.542 1139.88 665.407 1139.88 666.38C1139.88 667.352 1140.1 668.325 1140.42 669.082C1140.75 669.946 1141.29 670.703 1141.94 671.351C1142.58 672 1143.34 672.54 1144.21 672.864C1145.07 673.189 1145.93 673.405 1146.91 673.405C1148.2 673.405 1149.39 673.081 1150.47 672.432C1150.8 672.324 1151.01 672.216 1151.34 672.324C1151.66 672.432 1151.88 672.54 1151.99 672.864C1152.2 673.189 1152.2 673.405 1152.09 673.729C1151.99 674.053 1151.77 674.269 1151.55 674.486C1150.37 675.566 1148.85 675.999 1147.12 675.999Z" fill="#1C1C1C"/>
<path d="M1161.5 675.999C1161.17 675.999 1160.96 675.891 1160.63 675.674C1160.42 675.458 1160.31 675.134 1160.31 674.81V658.382C1160.31 658.057 1160.42 657.841 1160.63 657.517C1160.85 657.301 1161.17 657.193 1161.5 657.193C1161.82 657.193 1162.04 657.301 1162.25 657.517C1162.47 657.733 1162.58 658.057 1162.58 658.382V674.918C1162.58 675.242 1162.47 675.458 1162.25 675.783C1162.15 675.891 1161.82 675.999 1161.5 675.999ZM1161.5 667.785C1161.17 667.785 1160.96 667.677 1160.63 667.46C1160.42 667.244 1160.31 666.92 1160.31 666.596C1160.31 665.299 1160.53 664.11 1160.96 663.029C1161.39 661.948 1161.93 660.868 1162.69 660.003C1163.44 659.138 1164.42 658.382 1165.5 657.949C1166.58 657.409 1167.77 657.193 1169.06 657.193C1169.39 657.193 1169.6 657.301 1169.82 657.517C1170.04 657.733 1170.14 658.057 1170.14 658.382C1170.14 658.706 1170.04 658.922 1169.82 659.246C1169.6 659.571 1169.39 659.571 1169.06 659.571C1168.09 659.571 1167.23 659.787 1166.47 660.111C1165.71 660.435 1164.96 660.976 1164.42 661.624C1163.88 662.273 1163.44 663.029 1163.12 663.894C1162.79 664.758 1162.69 665.731 1162.69 666.704C1162.69 667.028 1162.58 667.244 1162.36 667.568C1162.15 667.677 1161.82 667.785 1161.5 667.785Z" fill="#1C1C1C"/>
<path d="M1181.6 675.999C1180.95 675.999 1180.3 675.891 1179.76 675.674C1179.12 675.458 1178.57 675.242 1178.03 674.918C1177.49 674.594 1177.06 674.161 1176.63 673.729C1176.2 673.297 1175.87 672.756 1175.55 672.216C1175.44 671.892 1175.44 671.676 1175.55 671.351C1175.66 671.027 1175.87 670.811 1176.2 670.703C1176.52 670.595 1176.74 670.595 1177.06 670.703C1177.39 670.811 1177.6 671.027 1177.71 671.351C1178.03 671.892 1178.47 672.54 1179.11 672.972C1179.76 673.513 1180.63 673.729 1181.6 673.729C1182.14 673.729 1182.57 673.621 1183.11 673.513C1183.55 673.405 1183.98 673.189 1184.3 672.864C1184.63 672.648 1184.95 672.324 1185.17 671.892C1185.38 671.459 1185.49 671.135 1185.49 670.703C1185.49 670.487 1185.49 670.162 1185.38 669.946C1185.28 669.73 1185.17 669.406 1184.84 669.082C1184.52 668.757 1184.19 668.541 1183.65 668.325C1183.11 668.109 1182.47 667.893 1181.49 667.677C1181.38 667.677 1181.28 667.677 1181.28 667.677C1180.84 667.568 1180.3 667.46 1179.66 667.352C1179.01 667.244 1178.47 666.92 1177.93 666.596C1177.17 666.163 1176.63 665.623 1176.2 664.866C1175.76 664.11 1175.66 663.353 1175.66 662.489C1175.66 661.732 1175.76 661.084 1176.09 660.435C1176.41 659.787 1176.85 659.246 1177.39 658.814C1177.93 658.382 1178.57 657.949 1179.33 657.625C1180.09 657.301 1180.84 657.193 1181.71 657.193C1182.36 657.193 1183.01 657.301 1183.65 657.517C1184.3 657.733 1184.95 657.949 1185.49 658.274C1186.03 658.598 1186.57 659.03 1187 659.462C1187.44 659.895 1187.76 660.435 1187.98 660.976C1188.09 661.3 1188.09 661.516 1187.98 661.84C1187.87 662.164 1187.65 662.381 1187.33 662.489C1187 662.597 1186.79 662.597 1186.46 662.489C1186.14 662.381 1185.92 662.164 1185.82 661.84C1185.71 661.516 1185.38 661.192 1185.17 660.868C1184.84 660.543 1184.52 660.327 1184.19 660.111C1183.87 659.895 1183.44 659.787 1183.01 659.571C1182.57 659.462 1182.14 659.354 1181.71 659.354C1181.17 659.354 1180.74 659.462 1180.3 659.571C1179.87 659.679 1179.44 659.895 1179.11 660.219C1178.79 660.435 1178.47 660.759 1178.25 661.192C1178.03 661.516 1177.93 661.948 1177.93 662.381C1177.93 663.353 1178.25 664.11 1179.01 664.542C1179.44 664.758 1179.87 664.975 1180.3 665.083C1180.74 665.191 1181.17 665.299 1181.6 665.299H1181.71H1181.82C1182.25 665.407 1182.79 665.515 1183.44 665.623C1184.09 665.731 1184.74 666.055 1185.28 666.38C1186.9 667.352 1187.65 668.649 1187.65 670.487C1187.65 671.243 1187.55 671.892 1187.22 672.54C1186.9 673.189 1186.46 673.729 1185.92 674.161C1185.38 674.594 1184.74 675.026 1183.98 675.242C1183.22 675.891 1182.47 675.999 1181.6 675.999Z" fill="#1C1C1C"/>
<path d="M933.016 675.891C932.368 675.891 931.828 675.35 931.828 674.702V650.708C931.828 650.059 932.368 649.519 933.016 649.519C933.665 649.519 934.205 650.059 934.205 650.708V674.702C934.097 675.35 933.557 675.891 933.016 675.891Z" fill="#1C1C1C"/>
<path d="M948.364 675.891C947.715 675.891 947.175 675.35 947.175 674.702V650.708C947.175 650.059 947.715 649.519 948.364 649.519C949.012 649.519 949.553 650.059 949.553 650.708V674.702C949.553 675.35 949.012 675.891 948.364 675.891Z" fill="#1C1C1C"/>
<path d="M917.561 675.891C917.345 675.891 917.129 675.783 916.912 675.674C916.372 675.35 916.264 674.594 916.588 674.053L931.936 650.059C932.26 649.519 933.016 649.411 933.557 649.735C934.097 650.059 934.205 650.816 933.881 651.356L918.534 675.35C918.317 675.674 917.993 675.891 917.561 675.891Z" fill="#1C1C1C"/>
<path d="M933.016 675.891C932.8 675.891 932.584 675.783 932.368 675.674C931.827 675.35 931.719 674.594 932.044 674.053L947.391 650.059C947.715 649.519 948.472 649.411 949.012 649.735C949.553 650.059 949.661 650.816 949.336 651.356L933.989 675.35C933.665 675.674 933.341 675.891 933.016 675.891Z" fill="#1C1C1C"/>
<path d="M841.689 462V613.312" stroke="url(#paint0_linear_0_1)" stroke-width="34.8998" stroke-miterlimit="10" stroke-linecap="round"/>
<path d="M938.961 462V613.312" stroke="url(#paint1_linear_0_1)" stroke-width="34.8998" stroke-miterlimit="10" stroke-linecap="round"/>
<path d="M841.689 462L744.417 613.312" stroke="url(#paint2_linear_0_1)" stroke-width="34.8998" stroke-miterlimit="10" stroke-linecap="round"/>
<path d="M938.961 462L841.689 613.312" stroke="url(#paint3_linear_0_1)" stroke-width="34.8998" stroke-miterlimit="10" stroke-linecap="round"/>
<path d="M1036.23 462V559.272" stroke="url(#paint4_linear_0_1)" stroke-width="34.8998" stroke-miterlimit="10" stroke-linecap="round"/>
<path d="M1036.23 462L938.961 613.312" stroke="url(#paint5_linear_0_1)" stroke-width="34.8998" stroke-miterlimit="10" stroke-linecap="round"/>
<path d="M1097.84 462H1100.43C1142.26 462 1176.09 495.829 1176.09 537.656C1176.09 579.483 1142.26 613.312 1100.43 613.312H1036.23" stroke="url(#paint6_linear_0_1)" stroke-width="34.8998" stroke-miterlimit="10" stroke-linecap="round"/>
<defs>
<linearGradient id="paint0_linear_0_1" x1="841.589" y1="461.892" x2="841.589" y2="613.204" gradientUnits="userSpaceOnUse">
<stop stop-color="#BC0D0D"/>
<stop offset="1" stop-color="#FC4C16"/>
</linearGradient>
<linearGradient id="paint1_linear_0_1" x1="938.861" y1="461.892" x2="938.86" y2="625.093" gradientUnits="userSpaceOnUse">
<stop stop-color="#C03104"/>
<stop offset="1" stop-color="#E9EE05"/>
</linearGradient>
<linearGradient id="paint2_linear_0_1" x1="744.417" y1="613.312" x2="841.689" y2="462" gradientUnits="userSpaceOnUse">
<stop stop-color="#FF2424"/>
<stop offset="1" stop-color="#F23030"/>
</linearGradient>
<linearGradient id="paint3_linear_0_1" x1="841.581" y1="622.391" x2="943.176" y2="464.054" gradientUnits="userSpaceOnUse">
<stop stop-color="#F93400"/>
<stop offset="1" stop-color="#F26600"/>
</linearGradient>
<linearGradient id="paint4_linear_0_1" x1="1031.73" y1="472.808" x2="1073.46" y2="572.762" gradientUnits="userSpaceOnUse">
<stop offset="0.0648962" stop-color="#10B602"/>
<stop offset="0.49355" stop-color="#21E611"/>
<stop offset="1" stop-color="white"/>
</linearGradient>
<linearGradient id="paint5_linear_0_1" x1="938.961" y1="613.312" x2="1036.23" y2="462" gradientUnits="userSpaceOnUse">
<stop stop-color="#C5DA42"/>
<stop offset="1" stop-color="#12E201"/>
</linearGradient>
<linearGradient id="paint6_linear_0_1" x1="1039.4" y1="493.036" x2="1158.71" y2="612.347" gradientUnits="userSpaceOnUse">
<stop stop-color="#00D1FF"/>
<stop offset="1" stop-color="#01ACE2"/>
</linearGradient>
</defs>
</svg>
